<svg width="27" height="27" viewBox="0 0 27 27" fill="none" xmlns="http://www.w3.org/2000/svg">
<path id="Vector" fill-rule="evenodd" clip-rule="evenodd" d="M8.02812 11.0469L13.125 5.95L18.2219 11.0469L21.1969 8.07187L13.125 0L5.05312 8.07187L8.02812 11.0469ZM0 13.1469L2.975 10.1719L5.95 13.1469L2.975 16.1219L0 13.1469ZM13.125 20.3438L8.02812 15.2469L5.05312 18.2L13.125 26.2719L21.1969 18.2L18.2219 15.225L13.125 20.3219V20.3438ZM20.3219 13.1469L23.2969 10.1719L26.2719 13.1469L23.2969 16.1219L20.3219 13.1469ZM13.125 10.1281L16.1438 13.1469L13.125 16.1656L10.1062 13.1688L10.6313 12.6219L10.8938 12.3594L13.125 10.1281Z" fill="#E4A951"/>
</svg>
