<svg width="43" height="30" viewBox="0 0 43 30" fill="none" xmlns="http://www.w3.org/2000/svg">
<path id="Layer_2" d="M36.8419 3.74611C31.6922 -0.107554 26.7581 0.000753159 26.7581 0.000753159L26.2539 0.576892C32.3762 2.41362 35.2214 5.11455 35.2214 5.11455C26.462 0.291968 15.305 0.326573 6.19417 5.11455C6.19417 5.11455 9.14722 2.26936 15.6299 0.432632L15.2699 0.000303142C15.2699 0.000303142 10.3719 -0.107554 5.18615 3.74566C5.18615 3.74566 0 13.0731 0 24.5617C0 24.5617 3.02541 29.7479 10.9844 30C10.9844 30 12.3169 28.4154 13.3973 27.0469C8.82365 25.6785 7.09478 22.8333 7.09478 22.8333C9.96829 24.6314 12.8737 25.7567 16.4946 26.4708C22.3854 27.6833 29.713 26.4367 35.1859 22.8333C35.1859 22.8333 33.3851 25.7504 28.6672 27.0829C29.7476 28.4154 31.0441 29.964 31.0441 29.964C39.0031 29.7119 42.0281 24.5258 42.0281 24.5622C42.0276 13.0735 36.8419 3.74611 36.8419 3.74611ZM14.2974 21.2127C12.2805 21.2127 10.624 19.4479 10.624 17.2512C10.7714 11.99 17.8603 12.0062 17.9709 17.2512C17.9709 19.4479 16.3499 21.2127 14.2974 21.2127ZM27.4421 21.2127C25.4252 21.2127 23.7687 19.4479 23.7687 17.2512C23.9305 12.0004 30.9309 11.9981 31.1156 17.2512C31.1156 19.4479 29.495 21.2127 27.4421 21.2127Z" fill="url(#paint0_linear_1_1332)"/>
<defs>
<linearGradient id="paint0_linear_1_1332" x1="21.014" y1="0" x2="21.014" y2="30" gradientUnits="userSpaceOnUse">
<stop stop-color="#9368E0"/>
<stop offset="1" stop-color="#00FFD1"/>
</linearGradient>
</defs>
</svg>
