<svg width="50" height="50" viewBox="0 0 50 50" fill="none" xmlns="http://www.w3.org/2000/svg">
<path id="Vector" d="M48.3696 30.9783L39.6739 27.4457L36.1413 18.75C35.8696 17.663 34.7826 17.1196 33.6957 17.1196C32.6087 17.1196 31.5217 17.663 31.25 18.75L27.7174 27.4457L19.0217 30.9783C17.9348 31.25 17.3913 32.337 17.3913 33.4239C17.3913 34.5109 17.9348 35.5978 19.0217 35.8696L27.7174 39.4022L31.25 48.0978C31.7935 49.1848 32.6087 49.7283 33.6957 49.7283C34.7826 49.7283 35.8696 49.1848 36.1413 48.0978L39.6739 39.4022L48.3696 35.8696C49.4565 35.3261 50 34.5109 50 33.4239C50 32.337 49.4565 31.25 48.3696 30.9783ZM20.1087 21.7391C20.1087 20.6522 19.5652 19.5652 18.4783 19.2935L14.4022 17.3913L12.5 13.3152C12.2283 12.2283 11.1413 11.6848 10.0543 11.6848C8.96739 11.6848 7.88044 12.2283 7.6087 13.3152L5.70652 17.3913L1.63044 19.2935C0.543479 19.837 0 20.6522 0 21.7391C0 22.8261 0.543479 23.913 1.63044 24.1848L5.70652 26.087L7.6087 30.163C8.15217 31.25 8.96739 31.7935 10.0543 31.7935C11.1413 31.7935 12.2283 31.25 12.5 30.163L14.4022 26.087L18.4783 24.1848C19.5652 23.913 20.1087 22.8261 20.1087 21.7391ZM31.5217 10.0543L33.9674 11.1413L35.0544 13.587C35.5978 14.6739 36.413 15.2174 37.5 15.2174C38.587 15.2174 39.6739 14.6739 39.9457 13.587L41.0326 11.1413L43.4783 10.0543C44.5652 9.51087 45.1087 8.69565 45.1087 7.6087C45.1087 6.52174 44.5652 5.43478 43.4783 5.16304L41.0326 4.07609L39.9457 1.63043C39.4022 0.543478 38.587 0 37.5 0C36.413 0 35.3261 0.543478 35.0544 1.63043L33.9674 4.07609L31.5217 5.16304C30.4348 5.70652 29.8913 6.52174 29.8913 7.6087C29.8913 8.69565 30.7065 9.78261 31.5217 10.0543Z" fill="url(#paint0_linear_1_1044)"/>
<defs>
<linearGradient id="paint0_linear_1_1044" x1="0" y1="24.8641" x2="50" y2="24.8641" gradientUnits="userSpaceOnUse">
<stop stop-color="#F09819"/>
<stop offset="1" stop-color="#EDDE5D"/>
</linearGradient>
</defs>
</svg>
