<svg width="62" height="62" viewBox="0 0 62 62" fill="none" xmlns="http://www.w3.org/2000/svg">
<g id="Group 101">
<circle id="Ellipse 96" cx="31" cy="31" r="30.5" transform="matrix(-1 0 0 1 62 0)" stroke="url(#paint0_linear_1_1075)"/>
<path id="Vector" d="M43.0007 30.9867C43.0007 31.2519 42.8954 31.5063 42.7078 31.6938C42.5203 31.8814 42.2659 31.9867 42.0007 31.9867H22.4147L26.7067 36.2787C26.8889 36.4673 26.9897 36.7199 26.9874 36.9821C26.9851 37.2443 26.88 37.4951 26.6946 37.6805C26.5091 37.8659 26.2583 37.9711 25.9961 37.9734C25.7339 37.9757 25.4813 37.8749 25.2927 37.6927L19.2927 31.6927C19.2002 31.6007 19.1268 31.4913 19.0767 31.3709C19.0265 31.2504 19.0007 31.1212 19.0007 30.9907V30.9867C19.0007 30.8567 19.0267 30.7267 19.0787 30.6047C19.1286 30.4835 19.202 30.3733 19.2947 30.2807L25.2947 24.2807C25.4833 24.0986 25.7359 23.9978 25.9981 24C26.2603 24.0023 26.5111 24.1075 26.6966 24.2929C26.882 24.4783 26.9871 24.7291 26.9894 24.9913C26.9917 25.2535 26.8909 25.5061 26.7087 25.6947L22.4147 29.9867H42.0007C42.2659 29.9867 42.5203 30.0921 42.7078 30.2796C42.8954 30.4671 43.0007 30.7215 43.0007 30.9867Z" fill="url(#paint1_linear_1_1075)"/>
</g>
<defs>
<linearGradient id="paint0_linear_1_1075" x1="3.499e-07" y1="31.5438" x2="62" y2="31.5438" gradientUnits="userSpaceOnUse">
<stop stop-color="#906DE0"/>
<stop offset="0.992452" stop-color="#5FC4E0"/>
</linearGradient>
<linearGradient id="paint1_linear_1_1075" x1="43.0007" y1="31.1093" x2="19.0007" y2="31.1093" gradientUnits="userSpaceOnUse">
<stop stop-color="#906DE0"/>
<stop offset="0.992452" stop-color="#5FC4E0"/>
</linearGradient>
</defs>
</svg>
