<svg width="20" height="21" viewBox="0 0 20 21" fill="none" xmlns="http://www.w3.org/2000/svg">
<g id="teenyicons:heart-outline" clip-path="url(#clip0_1_1943)">
<path id="Vector" d="M10 18.4999L9.528 18.9719C9.58993 19.034 9.6635 19.0833 9.74449 19.1169C9.82548 19.1505 9.91231 19.1678 10 19.1678C10.0877 19.1678 10.1745 19.1505 10.2555 19.1169C10.3365 19.0833 10.4101 19.034 10.472 18.9719L10 18.4999ZM10 5.16658L9.528 5.63859C9.58993 5.70067 9.6635 5.74993 9.74449 5.78354C9.82548 5.81714 9.91231 5.83444 10 5.83444C10.0877 5.83444 10.1745 5.81714 10.2555 5.78354C10.3365 5.74993 10.4101 5.70067 10.472 5.63859L10 5.16658ZM10.472 18.0279L2.51867 10.0759L1.576 11.0186L9.528 18.9719L10.472 18.0279ZM17.4813 10.0759L9.528 18.0279L10.472 18.9719L18.424 11.0186L17.4813 10.0759ZM8.24267 4.35192L9.528 5.63859L10.472 4.69459L9.18533 3.40925L8.24267 4.35192ZM10.472 5.63859L11.7573 4.35192L10.8147 3.40925L9.528 4.69459L10.472 5.63859ZM14.6187 1.83325C13.192 1.83325 11.824 2.39992 10.8147 3.40925L11.7573 4.35192C12.5164 3.59326 13.5455 3.16693 14.6187 3.16659V1.83325ZM18.6667 7.21458C18.6667 8.28792 18.24 9.31725 17.48 10.0759L18.424 11.0186C19.4328 10.0097 19.9997 8.64137 20 7.21458H18.6667ZM20 7.21458C20 5.78737 19.433 4.4186 18.4238 3.40941C17.4146 2.40021 16.0459 1.83325 14.6187 1.83325V3.16659C15.6923 3.16659 16.7219 3.59307 17.481 4.35222C18.2402 5.11136 18.6667 6.14099 18.6667 7.21458H20ZM5.38133 3.16659C6.45467 3.16659 7.484 3.59325 8.24267 4.35325L9.18533 3.40925C8.1764 2.4004 6.80812 1.83352 5.38133 1.83325V3.16659ZM1.33333 7.21458C1.33333 6.14099 1.75982 5.11136 2.51897 4.35222C3.27811 3.59307 4.30774 3.16659 5.38133 3.16659V1.83325C3.95411 1.83325 2.58535 2.40021 1.57616 3.40941C0.56696 4.4186 0 5.78737 0 7.21458H1.33333ZM2.51867 10.0759C2.14265 9.70028 1.84565 9.25424 1.64204 8.76329C1.43843 8.27234 1.33353 7.74608 1.33333 7.21458H0C0 8.64125 0.566667 10.0093 1.576 11.0186L2.51867 10.0759Z" fill="#D3D3D3"/>
</g>
<defs>
<clipPath id="clip0_1_1943">
<rect width="20" height="20" fill="white" transform="translate(0 0.5)"/>
</clipPath>
</defs>
</svg>
