<svg width="62" height="62" viewBox="0 0 62 62" fill="none" xmlns="http://www.w3.org/2000/svg">
<g id="Group 100">
<circle id="Ellipse 96" cx="31" cy="31" r="30.5" stroke="url(#paint0_linear_1_1066)"/>
<path id="Vector" d="M19 30.9867C19 31.2519 19.1054 31.5063 19.2929 31.6938C19.4804 31.8814 19.7348 31.9867 20 31.9867H39.586L35.294 36.2787C35.1118 36.4673 35.011 36.7199 35.0133 36.9821C35.0156 37.2443 35.1208 37.4951 35.3062 37.6805C35.4916 37.8659 35.7424 37.9711 36.0046 37.9734C36.2668 37.9757 36.5194 37.8749 36.708 37.6927L42.708 31.6927C42.8005 31.6007 42.874 31.4913 42.9241 31.3709C42.9742 31.2504 43 31.1212 43 30.9907V30.9867C43 30.8567 42.974 30.7267 42.922 30.6047C42.8722 30.4835 42.7987 30.3733 42.706 30.2807L36.706 24.2807C36.5174 24.0986 36.2648 23.9978 36.0026 24C35.7404 24.0023 35.4896 24.1075 35.3042 24.2929C35.1188 24.4783 35.0136 24.7291 35.0113 24.9913C35.009 25.2535 35.1098 25.5061 35.292 25.6947L39.586 29.9867H20C19.7348 29.9867 19.4804 30.0921 19.2929 30.2796C19.1054 30.4671 19 30.7215 19 30.9867Z" fill="url(#paint1_linear_1_1066)"/>
</g>
<defs>
<linearGradient id="paint0_linear_1_1066" x1="3.499e-07" y1="31.5438" x2="62" y2="31.5438" gradientUnits="userSpaceOnUse">
<stop stop-color="#906DE0"/>
<stop offset="0.992452" stop-color="#5FC4E0"/>
</linearGradient>
<linearGradient id="paint1_linear_1_1066" x1="19" y1="31.1093" x2="43" y2="31.1093" gradientUnits="userSpaceOnUse">
<stop stop-color="#906DE0"/>
<stop offset="0.992452" stop-color="#5FC4E0"/>
</linearGradient>
</defs>
</svg>
